<svg width="24" height="25" viewBox="0 0 24 25" fill="none" xmlns="http://www.w3.org/2000/svg">
<path d="M9.02 2.94368L3.63 7.14368C2.73 7.84368 2 9.33368 2 10.4637V17.8737C2 20.1937 3.89 22.0937 6.21 22.0937H17.79C20.11 22.0937 22 20.1937 22 17.8837V10.6037C22 9.39368 21.19 7.84368 20.2 7.15368L14.02 2.82368C12.62 1.84368 10.37 1.89368 9.02 2.94368Z" stroke="#130F26" stroke-width="1.5" stroke-linecap="round" stroke-linejoin="round"/>
<path d="M10.5 18.1055H13.5C15.15 18.1055 16.5 16.7555 16.5 15.1055V12.1055C16.5 10.4555 15.15 9.10547 13.5 9.10547H10.5C8.85 9.10547 7.5 10.4555 7.5 12.1055V15.1055C7.5 16.7555 8.85 18.1055 10.5 18.1055Z" stroke="#130F26" stroke-width="1.5" stroke-linecap="round" stroke-linejoin="round"/>
<path d="M12 9.10547V18.1055" stroke="#130F26" stroke-width="1.5" stroke-linecap="round" stroke-linejoin="round"/>
<path d="M7.5 13.6055H16.5" stroke="#130F26" stroke-width="1.5" stroke-linecap="round" stroke-linejoin="round"/>
</svg>
